{
  "accessors": [
    {
      "bufferView": 2,
      "componentType": 5126,
      "count": 6473,
      "max": [
        0.9462029933929443,
        0.9630900025367737,
        0.9462040066719055
      ],
      "min": [
        -0.9462029933929443,
        -0.9630900025367737,
        -0.9462040066719055
      ],
      "type": "VEC3"
    },
    {
      "bufferView": 2,
      "byteOffset": 77676,
      "componentType": 5126,
      "count": 6473,
      "max": [
        1.0,
        1.0,
        1.0
      ],
      "min": [
        -1.0,
        -1.0,
        -1.0
      ],
      "type": "VEC3"
    },
    {
      "bufferView": 3,
      "componentType": 5126,
      "count": 6473,
      "max": [
        1.0,
        0.0718604326248169,
        1.0,
        1.0
      ],
      "min": [
        -1.0,
        -0.07186267524957657,
        -1.0,
        1.0
      ],
      "type": "VEC4"
    },
    {
      "bufferView": 1,
      "componentType": 5126,
      "count": 6473,
      "max": [
        1.0,
        1.0
      ],
      "min": [
        0.0,
        0.0
      ],
      "type": "VEC2"
    },
    {
      "bufferView": 0,
      "componentType": 5125,
      "count": 37440,
      "type": "SCALAR"
    },
    {
      "bufferView": 2,
      "byteOffset": 155352,
      "componentType": 5126,
      "count": 6473,
      "max": [
        0.9999719858169556,
        1.0178200006484985,
        0.9999719858169556
      ],
      "min": [
        -0.9999719858169556,
        -1.0178200006484985,
        -0.9999719858169556
      ],
      "type": "VEC3"
    },
    {
      "bufferView": 2,
      "byteOffset": 233028,
      "componentType": 5126,
      "count": 6473,
      "max": [
        1.0,
        1.0,
        1.0
      ],
      "min": [
        -1.0,
        -1.0,
        -1.0
      ],
      "type": "VEC3"
    },
    {
      "bufferView": 3,
      "byteOffset": 103568,
      "componentType": 5126,
      "count": 6473,
      "max": [
        1.0,
        0.07185021787881851,
        1.0,
        -1.0
      ],
      "min": [
        -1.0,
        -0.07185206562280655,
        -1.0,
        -1.0
      ],
      "type": "VEC4"
    },
    {
      "bufferView": 1,
      "byteOffset": 51784,
      "componentType": 5126,
      "count": 6473,
      "max": [
        1.0,
        1.0
      ],
      "min": [
        0.0,
        0.0
      ],
      "type": "VEC2"
    },
    {
      "bufferView": 0,
      "byteOffset": 149760,
      "componentType": 5125,
      "count": 37440,
      "type": "SCALAR"
    },
    {
      "bufferView": 2,
      "byteOffset": 310704,
      "componentType": 5126,
      "count": 732,
      "max": [
        0.41470399498939514,
        0.42901700735092163,
        0.9333680272102356
      ],
      "min": [
        -0.41470301151275635,
        -0.4030640125274658,
        0.7913119792938232
      ],
      "type": "VEC3"
    },
    {
      "bufferView": 2,
      "byteOffset": 319488,
      "componentType": 5126,
      "count": 732,
      "max": [
        0.6950820088386536,
        0.6607910394668579,
        0.9993385076522827
      ],
      "min": [
        -0.6950826644897461,
        -0.5863891243934631,
        0.6370000839233398
      ],
      "type": "VEC3"
    },
    {
      "bufferView": 3,
      "byteOffset": 207136,
      "componentType": 5126,
      "count": 732,
      "max": [
        0.9825825691223145,
        0.9994921684265137,
        0.7511858344078064,
        1.0
      ],
      "min": [
        -0.9825829863548279,
        -0.9793413281440735,
        -0.7542622685432434,
        -1.0
      ],
      "type": "VEC4"
    },
    {
      "bufferView": 1,
      "byteOffset": 103568,
      "componentType": 5126,
      "count": 732,
      "max": [
        0.9693220257759094,
        0.9853289723396301
      ],
      "min": [
        0.013252300210297108,
        0.013226600363850594
      ],
      "type": "VEC2"
    },
    {
      "bufferView": 0,
      "byteOffset": 299520,
      "componentType": 5125,
      "count": 3624,
      "type": "SCALAR"
    }
  ],
  "asset": {
    "extras": {
      "author": "Isaack - Tacko The 3D Guy (https://sketchfab.com/isaackgamma)",
      "license": "CC-BY-NC-SA-4.0 (http://creativecommons.org/licenses/by-nc-sa/4.0/)",
      "source": "https://sketchfab.com/3d-models/dragon-ball-1b5c3c86ea344ef591cd95edd82f6842",
      "title": "Dragon Ball"
    },
    "generator": "Sketchfab-12.68.0",
    "version": "2.0"
  },
  "bufferViews": [
    {
      "buffer": 0,
      "byteLength": 314016,
      "name": "floatBufferViews",
      "target": 34963
    },
    {
      "buffer": 0,
      "byteLength": 109424,
      "byteOffset": 314016,
      "byteStride": 8,
      "name": "floatBufferViews",
      "target": 34962
    },
    {
      "buffer": 0,
      "byteLength": 328272,
      "byteOffset": 423440,
      "byteStride": 12,
      "name": "floatBufferViews",
      "target": 34962
    },
    {
      "buffer": 0,
      "byteLength": 218848,
      "byteOffset": 751712,
      "byteStride": 16,
      "name": "floatBufferViews",
      "target": 34962
    }
  ],
  "buffers": [
    {
      "byteLength": 970560,
      "uri": "scene.bin"
    }
  ],
  "images": [
    {
      "uri": "textures/phong1_baseColor.jpeg"
    },
    {
      "uri": "textures/phong1_metallicRoughness.png"
    },
    {
      "uri": "textures/phong1_emissive.jpeg"
    },
    {
      "uri": "textures/phong1_normal.png"
    },
    {
      "uri": "textures/lambert1_baseColor.png"
    },
    {
      "uri": "textures/lambert1_metallicRoughness.png"
    },
    {
      "uri": "textures/lambert1_emissive.jpeg"
    },
    {
      "uri": "textures/lambert1_normal.png"
    },
    {
      "uri": "textures/lambert2_baseColor.png"
    },
    {
      "uri": "textures/lambert2_metallicRoughness.png"
    },
    {
      "uri": "textures/lambert2_normal.png"
    }
  ],
  "materials": [
    {
      "emissiveFactor": [
        1.0,
        1.0,
        1.0
      ],
      "emissiveTexture": {
        "index": 2
      },
      "name": "phong1",
      "normalTexture": {
        "index": 3
      },
      "pbrMetallicRoughness": {
        "baseColorTexture": {
          "index": 0
        },
        "metallicRoughnessTexture": {
          "index": 1
        },
        "roughnessFactor": 0.0
      }
    },
    {
      "alphaMode": "BLEND",
      "emissiveFactor": [
        1.0,
        1.0,
        1.0
      ],
      "emissiveTexture": {
        "index": 6
      },
      "name": "lambert1",
      "normalTexture": {
        "index": 7
      },
      "pbrMetallicRoughness": {
        "baseColorFactor": [
          1.0,
          1.0,
          1.0,
          0.7273246951219512
        ],
        "baseColorTexture": {
          "index": 4
        },
        "metallicRoughnessTexture": {
          "index": 5
        },
        "roughnessFactor": 0.0
      }
    },
    {
      "alphaMode": "BLEND",
      "emissiveFactor": [
        1.0,
        0.03032004044833181,
        0.0
      ],
      "name": "lambert2",
      "normalTexture": {
        "index": 10
      },
      "pbrMetallicRoughness": {
        "baseColorTexture": {
          "index": 8
        },
        "metallicRoughnessTexture": {
          "index": 9
        },
        "roughnessFactor": 0.0
      }
    }
  ],
  "meshes": [
    {
      "name": "defaultMaterial",
      "primitives": [
        {
          "attributes": {
            "NORMAL": 1,
            "POSITION": 0,
            "TANGENT": 2,
            "TEXCOORD_0": 3
          },
          "indices": 4,
          "material": 2,
          "mode": 4
        }
      ]
    },
    {
      "name": "defaultMaterial",
      "primitives": [
        {
          "attributes": {
            "NORMAL": 6,
            "POSITION": 5,
            "TANGENT": 7,
            "TEXCOORD_0": 8
          },
          "indices": 9,
          "material": 1,
          "mode": 4
        }
      ]
    },
    {
      "name": "defaultMaterial",
      "primitives": [
        {
          "attributes": {
            "NORMAL": 11,
            "POSITION": 10,
            "TANGENT": 12,
            "TEXCOORD_0": 13
          },
          "indices": 14,
          "material": 0,
          "mode": 4
        }
      ]
    }
  ],
  "nodes": [
    {
      "children": [
        1
      ],
      "matrix": [
        0.05739317834377289,
        0.0,
        0.0,
        0.0,
        0.0,
        1.2743845610734914e-17,
        -0.05739317834377289,
        0.0,
        0.0,
        0.05739317834377289,
        1.2743845610734914e-17,
        0.0,
        0.0,
        0.0,
        0.0,
        1.0
      ],
      "name": "Sketchfab_model"
    },
    {
      "children": [
        2,
        4,
        6
      ],
      "matrix": [
        1.0,
        0.0,
        0.0,
        0.0,
        0.0,
        -4.371139006309477e-08,
        0.999999999999999,
        0.0,
        0.0,
        -0.999999999999999,
        -4.371139006309477e-08,
        0.0,
        0.0,
        0.0,
        0.0,
        1.0
      ],
      "name": "Collada visual scene group"
    },
    {
      "children": [
        3
      ],
      "name": "polySurface11_polySurface13_polySurface14"
    },
    {
      "mesh": 0,
      "name": "defaultMaterial"
    },
    {
      "children": [
        5
      ],
      "name": "polySurface11_polySurface13_polySurface14"
    },
    {
      "mesh": 1,
      "name": "defaultMaterial"
    },
    {
      "children": [
        7
      ],
      "name": "polySurface11_polySurface13_polySurface14"
    },
    {
      "mesh": 2,
      "name": "defaultMaterial"
    }
  ],
  "samplers": [
    {
      "magFilter": 9729,
      "minFilter": 9987,
      "wrapS": 10497,
      "wrapT": 10497
    }
  ],
  "scene": 0,
  "scenes": [
    {
      "name": "Sketchfab_Scene",
      "nodes": [
        0
      ]
    }
  ],
  "textures": [
    {
      "sampler": 0,
      "source": 0
    },
    {
      "sampler": 0,
      "source": 1
    },
    {
      "sampler": 0,
      "source": 2
    },
    {
      "sampler": 0,
      "source": 3
    },
    {
      "sampler": 0,
      "source": 4
    },
    {
      "sampler": 0,
      "source": 5
    },
    {
      "sampler": 0,
      "source": 6
    },
    {
      "sampler": 0,
      "source": 7
    },
    {
      "sampler": 0,
      "source": 8
    },
    {
      "sampler": 0,
      "source": 9
    },
    {
      "sampler": 0,
      "source": 10
    }
  ]
}
