{
  "accessors": [
    {
      "bufferView": 2,
      "componentType": 5126,
      "count": 2448,
      "max": [
        12.250650405883789,
        2.477881908416748,
        1.0
      ],
      "min": [
        -1.5769480466842651,
        -6.032872200012207,
        -16.791980743408203
      ],
      "type": "VEC3"
    },
    {
      "bufferView": 2,
      "byteOffset": 29376,
      "componentType": 5126,
      "count": 2448,
      "max": [
        0.9998853802680969,
        0.9998397827148438,
        1.0
      ],
      "min": [
        -0.9985787868499756,
        -0.9998899102210999,
        -0.9973185062408447
      ],
      "type": "VEC3"
    },
    {
      "bufferView": 3,
      "componentType": 5126,
      "count": 2448,
      "max": [
        0.9977575540542603,
        0.9990674257278442,
        0.9997062683105469,
        1.0
      ],
      "min": [
        -0.9950167536735535,
        -0.995005190372467,
        -0.979121208190918,
        1.0
      ],
      "type": "VEC4"
    },
    {
      "bufferView": 1,
      "componentType": 5126,
      "count": 2448,
      "max": [
        0.9898409843444824,
        0.9930459856987
      ],
      "min": [
        0.0,
        0.0
      ],
      "type": "VEC2"
    },
    {
      "bufferView": 0,
      "componentType": 5125,
      "count": 8052,
      "type": "SCALAR"
    },
    {
      "bufferView": 2,
      "byteOffset": 58752,
      "componentType": 5126,
      "count": 2540,
      "max": [
        12.590385437011719,
        1.0000059604644775,
        2.9175429344177246
      ],
      "min": [
        -1.0,
        -6.984275817871094,
        -4.297138214111328
      ],
      "type": "VEC3"
    },
    {
      "bufferView": 2,
      "byteOffset": 89232,
      "componentType": 5126,
      "count": 2540,
      "max": [
        1.0,
        1.0,
        1.0
      ],
      "min": [
        -1.0,
        -1.0,
        -1.0
      ],
      "type": "VEC3"
    },
    {
      "bufferView": 3,
      "byteOffset": 39168,
      "componentType": 5126,
      "count": 2540,
      "max": [
        0.9983845353126526,
        0.9994267225265503,
        0.9999991655349731,
        1.0
      ],
      "min": [
        -0.9778503775596619,
        -0.9989880323410034,
        -0.9999237656593323,
        1.0
      ],
      "type": "VEC4"
    },
    {
      "bufferView": 1,
      "byteOffset": 19584,
      "componentType": 5126,
      "count": 2540,
      "max": [
        1.0,
        0.996973991394043
      ],
      "min": [
        0.0,
        0.0
      ],
      "type": "VEC2"
    },
    {
      "bufferView": 0,
      "byteOffset": 32208,
      "componentType": 5125,
      "count": 7632,
      "type": "SCALAR"
    },
    {
      "bufferView": 2,
      "byteOffset": 119712,
      "componentType": 5126,
      "count": 974,
      "max": [
        1.122378945350647,
        1.122378945350647,
        1.0
      ],
      "min": [
        -1.1223779916763306,
        -1.1223779916763306,
        -1.4321329593658447
      ],
      "type": "VEC3"
    },
    {
      "bufferView": 2,
      "byteOffset": 131400,
      "componentType": 5126,
      "count": 974,
      "max": [
        1.0,
        1.0,
        1.0
      ],
      "min": [
        -1.0,
        -1.0,
        -1.0
      ],
      "type": "VEC3"
    },
    {
      "bufferView": 3,
      "byteOffset": 79808,
      "componentType": 5126,
      "count": 974,
      "max": [
        0.9569881558418274,
        0.7806224822998047,
        1.0,
        1.0
      ],
      "min": [
        -0.9975718259811401,
        -0.9569956660270691,
        -1.0,
        1.0
      ],
      "type": "VEC4"
    },
    {
      "bufferView": 1,
      "byteOffset": 39904,
      "componentType": 5126,
      "count": 974,
      "max": [
        0.9958940148353577,
        0.9942799806594849
      ],
      "min": [
        0.05586199834942818,
        0.0
      ],
      "type": "VEC2"
    },
    {
      "bufferView": 0,
      "byteOffset": 62736,
      "componentType": 5125,
      "count": 2676,
      "type": "SCALAR"
    },
    {
      "bufferView": 2,
      "byteOffset": 143088,
      "componentType": 5126,
      "count": 1104,
      "max": [
        1.122378945350647,
        1.122378945350647,
        1.2284890413284302
      ],
      "min": [
        -1.1223779916763306,
        -1.1223779916763306,
        -1.4321329593658447
      ],
      "type": "VEC3"
    },
    {
      "bufferView": 2,
      "byteOffset": 156336,
      "componentType": 5126,
      "count": 1104,
      "max": [
        1.0,
        1.0,
        1.0
      ],
      "min": [
        -1.0,
        -1.0,
        -1.0
      ],
      "type": "VEC3"
    },
    {
      "bufferView": 3,
      "byteOffset": 95392,
      "componentType": 5126,
      "count": 1104,
      "max": [
        0.9569864273071289,
        0.7806201577186584,
        1.0,
        1.0
      ],
      "min": [
        -0.9952600002288818,
        -0.9569696187973022,
        -1.0,
        1.0
      ],
      "type": "VEC4"
    },
    {
      "bufferView": 1,
      "byteOffset": 47696,
      "componentType": 5126,
      "count": 1104,
      "max": [
        0.9973139762878418,
        0.9921600222587585
      ],
      "min": [
        0.05237000063061714,
        0.0
      ],
      "type": "VEC2"
    },
    {
      "bufferView": 0,
      "byteOffset": 73440,
      "componentType": 5125,
      "count": 3060,
      "type": "SCALAR"
    },
    {
      "bufferView": 2,
      "byteOffset": 169584,
      "componentType": 5126,
      "count": 1398,
      "max": [
        1.1747000217437744,
        2.0131020545959473,
        1.3008919954299927
      ],
      "min": [
        -1.1727629899978638,
        -1.2196849584579468,
        -5.771213054656982
      ],
      "type": "VEC3"
    },
    {
      "bufferView": 2,
      "byteOffset": 186360,
      "componentType": 5126,
      "count": 1398,
      "max": [
        0.9999709725379944,
        1.0,
        0.991675853729248
      ],
      "min": [
        -0.9999709725379944,
        -1.0,
        -0.979942262172699
      ],
      "type": "VEC3"
    },
    {
      "bufferView": 3,
      "byteOffset": 113056,
      "componentType": 5126,
      "count": 1398,
      "max": [
        0.9999535083770752,
        0.9999492764472961,
        0.9645316004753113,
        1.0
      ],
      "min": [
        -0.9993365406990051,
        -0.9996605515480042,
        -0.9970301985740662,
        1.0
      ],
      "type": "VEC4"
    },
    {
      "bufferView": 1,
      "byteOffset": 56528,
      "componentType": 5126,
      "count": 1398,
      "max": [
        0.9965419769287109,
        0.9902729988098145
      ],
      "min": [
        0.059300001710653305,
        0.0
      ],
      "type": "VEC2"
    },
    {
      "bufferView": 0,
      "byteOffset": 85680,
      "componentType": 5125,
      "count": 4596,
      "type": "SCALAR"
    },
    {
      "bufferView": 2,
      "byteOffset": 203136,
      "componentType": 5126,
      "count": 389,
      "max": [
        1.142279028892517,
        1.0,
        1.0
      ],
      "min": [
        -1.0,
        -1.0,
        -2.2511041164398193
      ],
      "type": "VEC3"
    },
    {
      "bufferView": 2,
      "byteOffset": 207804,
      "componentType": 5126,
      "count": 389,
      "max": [
        0.9791275262832642,
        0.9996920228004456,
        1.0
      ],
      "min": [
        -0.9791275262832642,
        -0.9996920228004456,
        -0.6430800557136536
      ],
      "type": "VEC3"
    },
    {
      "bufferView": 3,
      "byteOffset": 135424,
      "componentType": 5126,
      "count": 389,
      "max": [
        0.9871768355369568,
        0.9999775886535645,
        0.845285177230835,
        1.0
      ],
      "min": [
        -0.7912657260894775,
        -0.9569793343544006,
        -0.9791275858879089,
        1.0
      ],
      "type": "VEC4"
    },
    {
      "bufferView": 1,
      "byteOffset": 67712,
      "componentType": 5126,
      "count": 389,
      "max": [
        0.9485170245170593,
        0.974174976348877
      ],
      "min": [
        0.132082998752594,
        0.05637200176715851
      ],
      "type": "VEC2"
    },
    {
      "bufferView": 0,
      "byteOffset": 104064,
      "componentType": 5125,
      "count": 1140,
      "type": "SCALAR"
    },
    {
      "bufferView": 2,
      "byteOffset": 212472,
      "componentType": 5126,
      "count": 6324,
      "max": [
        0.9274749755859375,
        0.9274749755859375,
        1.3284200429916382
      ],
      "min": [
        -0.9274749755859375,
        -0.9274749755859375,
        -2.311553955078125
      ],
      "type": "VEC3"
    },
    {
      "bufferView": 2,
      "byteOffset": 288360,
      "componentType": 5126,
      "count": 6324,
      "max": [
        1.0,
        1.0,
        0.9999871253967285
      ],
      "min": [
        -1.0,
        -1.0,
        -1.0
      ],
      "type": "VEC3"
    },
    {
      "bufferView": 3,
      "byteOffset": 141648,
      "componentType": 5126,
      "count": 6324,
      "max": [
        0.9997170567512512,
        0.9991543292999268,
        0.9999999403953552,
        1.0
      ],
      "min": [
        -0.9994955062866211,
        -0.998279869556427,
        -1.0,
        1.0
      ],
      "type": "VEC4"
    },
    {
      "bufferView": 1,
      "byteOffset": 70824,
      "componentType": 5126,
      "count": 6324,
      "max": [
        0.9987840056419373,
        0.9969720244407654
      ],
      "min": [
        0.0,
        0.04167500138282776
      ],
      "type": "VEC2"
    },
    {
      "bufferView": 0,
      "byteOffset": 108624,
      "componentType": 5125,
      "count": 26496,
      "type": "SCALAR"
    },
    {
      "bufferView": 2,
      "byteOffset": 364248,
      "componentType": 5126,
      "count": 3005,
      "max": [
        1.4996989965438843,
        1.5025769472122192,
        1.2939410209655762
      ],
      "min": [
        -1.4996980428695679,
        -1.7518179416656494,
        -1.2529939413070679
      ],
      "type": "VEC3"
    },
    {
      "bufferView": 2,
      "byteOffset": 400308,
      "componentType": 5126,
      "count": 3005,
      "max": [
        0.99974125623703,
        0.9999988675117493,
        1.0
      ],
      "min": [
        -0.99974125623703,
        -0.9998794794082642,
        -1.0
      ],
      "type": "VEC3"
    },
    {
      "bufferView": 3,
      "byteOffset": 242832,
      "componentType": 5126,
      "count": 3005,
      "max": [
        0.9996693134307861,
        0.9999989867210388,
        0.9994798898696899,
        1.0
      ],
      "min": [
        -0.8606588840484619,
        -0.8033480644226074,
        -0.9999982714653015,
        1.0
      ],
      "type": "VEC4"
    },
    {
      "bufferView": 1,
      "byteOffset": 121416,
      "componentType": 5126,
      "count": 3005,
      "max": [
        0.9677169919013977,
        0.989886999130249
      ],
      "min": [
        0.0,
        0.0
      ],
      "type": "VEC2"
    },
    {
      "bufferView": 0,
      "byteOffset": 214608,
      "componentType": 5125,
      "count": 15696,
      "type": "SCALAR"
    },
    {
      "bufferView": 2,
      "byteOffset": 436368,
      "componentType": 5126,
      "count": 1333,
      "max": [
        1.3497660160064697,
        0.42359399795532227,
        0.15993699431419373
      ],
      "min": [
        -0.42359399795532227,
        -0.42359301447868347,
        -0.44343000650405884
      ],
      "type": "VEC3"
    },
    {
      "bufferView": 2,
      "byteOffset": 452364,
      "componentType": 5126,
      "count": 1333,
      "max": [
        1.0,
        1.0,
        1.0
      ],
      "min": [
        -1.0,
        -1.0,
        -1.0
      ],
      "type": "VEC3"
    },
    {
      "bufferView": 3,
      "byteOffset": 290912,
      "componentType": 5126,
      "count": 1333,
      "max": [
        0.9546371698379517,
        1.0,
        1.0,
        1.0
      ],
      "min": [
        -0.9983492493629456,
        -1.0,
        -1.0,
        1.0
      ],
      "type": "VEC4"
    },
    {
      "bufferView": 1,
      "byteOffset": 145456,
      "componentType": 5126,
      "count": 1333,
      "max": [
        0.9806100130081177,
        0.9843389987945557
      ],
      "min": [
        0.1708270013332367,
        0.10187000036239624
      ],
      "type": "VEC2"
    },
    {
      "bufferView": 0,
      "byteOffset": 277392,
      "componentType": 5125,
      "count": 4416,
      "type": "SCALAR"
    },
    {
      "bufferView": 2,
      "byteOffset": 468360,
      "componentType": 5126,
      "count": 10263,
      "max": [
        3.1263020038604736,
        2.127962112426758,
        7.554488182067871
      ],
      "min": [
        0.1654209941625595,
        -2.4415900707244873,
        0.5405319929122925
      ],
      "type": "VEC3"
    },
    {
      "bufferView": 2,
      "byteOffset": 591516,
      "componentType": 5126,
      "count": 10263,
      "max": [
        1.0,
        1.0,
        1.0
      ],
      "min": [
        -1.0,
        -1.0,
        -1.0
      ],
      "type": "VEC3"
    },
    {
      "bufferView": 3,
      "byteOffset": 312240,
      "componentType": 5126,
      "count": 10263,
      "max": [
        1.0,
        0.9999980330467224,
        0.9999998211860657,
        1.0
      ],
      "min": [
        -0.9999748468399048,
        -0.9999998807907104,
        -0.9999998211860657,
        1.0
      ],
      "type": "VEC4"
    },
    {
      "bufferView": 1,
      "byteOffset": 156120,
      "componentType": 5126,
      "count": 10263,
      "max": [
        0.9957349896430969,
        0.9960169792175293
      ],
      "min": [
        0.05237000063061714,
        0.04167500138282776
      ],
      "type": "VEC2"
    },
    {
      "bufferView": 0,
      "byteOffset": 295056,
      "componentType": 5125,
      "count": 31572,
      "type": "SCALAR"
    }
  ],
  "asset": {
    "extras": {
      "author": "Erdem Dağdelen (https://sketchfab.com/erdemdagdelen)",
      "license": "CC-BY-4.0 (http://creativecommons.org/licenses/by/4.0/)",
      "source": "https://sketchfab.com/3d-models/lovedeath-robots-fcb9c8cc72a3445582c50726d23bb2e5",
      "title": "Love,Death & Robots"
    },
    "generator": "Sketchfab-12.67.0",
    "version": "2.0"
  },
  "bufferViews": [
    {
      "buffer": 0,
      "byteLength": 421344,
      "name": "floatBufferViews",
      "target": 34963
    },
    {
      "buffer": 0,
      "byteLength": 238224,
      "byteOffset": 421344,
      "byteStride": 8,
      "name": "floatBufferViews",
      "target": 34962
    },
    {
      "buffer": 0,
      "byteLength": 714672,
      "byteOffset": 659568,
      "byteStride": 12,
      "name": "floatBufferViews",
      "target": 34962
    },
    {
      "buffer": 0,
      "byteLength": 476448,
      "byteOffset": 1374240,
      "byteStride": 16,
      "name": "floatBufferViews",
      "target": 34962
    }
  ],
  "buffers": [
    {
      "byteLength": 1850688,
      "uri": "scene.bin"
    }
  ],
  "images": [
    {
      "uri": "textures/Material_baseColor.jpeg"
    },
    {
      "uri": "textures/Material_metallicRoughness.png"
    },
    {
      "uri": "textures/Material_normal.png"
    }
  ],
  "materials": [
    {
      "doubleSided": true,
      "name": "Material",
      "normalTexture": {
        "index": 2
      },
      "occlusionTexture": {
        "index": 1
      },
      "pbrMetallicRoughness": {
        "baseColorTexture": {
          "index": 0
        },
        "metallicRoughnessTexture": {
          "index": 1
        }
      }
    }
  ],
  "meshes": [
    {
      "name": "defaultMaterial",
      "primitives": [
        {
          "attributes": {
            "NORMAL": 1,
            "POSITION": 0,
            "TANGENT": 2,
            "TEXCOORD_0": 3
          },
          "indices": 4,
          "material": 0,
          "mode": 4
        }
      ]
    },
    {
      "name": "defaultMaterial",
      "primitives": [
        {
          "attributes": {
            "NORMAL": 6,
            "POSITION": 5,
            "TANGENT": 7,
            "TEXCOORD_0": 8
          },
          "indices": 9,
          "material": 0,
          "mode": 4
        }
      ]
    },
    {
      "name": "defaultMaterial",
      "primitives": [
        {
          "attributes": {
            "NORMAL": 11,
            "POSITION": 10,
            "TANGENT": 12,
            "TEXCOORD_0": 13
          },
          "indices": 14,
          "material": 0,
          "mode": 4
        }
      ]
    },
    {
      "name": "defaultMaterial",
      "primitives": [
        {
          "attributes": {
            "NORMAL": 16,
            "POSITION": 15,
            "TANGENT": 17,
            "TEXCOORD_0": 18
          },
          "indices": 19,
          "material": 0,
          "mode": 4
        }
      ]
    },
    {
      "name": "defaultMaterial",
      "primitives": [
        {
          "attributes": {
            "NORMAL": 21,
            "POSITION": 20,
            "TANGENT": 22,
            "TEXCOORD_0": 23
          },
          "indices": 24,
          "material": 0,
          "mode": 4
        }
      ]
    },
    {
      "name": "defaultMaterial",
      "primitives": [
        {
          "attributes": {
            "NORMAL": 26,
            "POSITION": 25,
            "TANGENT": 27,
            "TEXCOORD_0": 28
          },
          "indices": 29,
          "material": 0,
          "mode": 4
        }
      ]
    },
    {
      "name": "defaultMaterial",
      "primitives": [
        {
          "attributes": {
            "NORMAL": 31,
            "POSITION": 30,
            "TANGENT": 32,
            "TEXCOORD_0": 33
          },
          "indices": 34,
          "material": 0,
          "mode": 4
        }
      ]
    },
    {
      "name": "defaultMaterial",
      "primitives": [
        {
          "attributes": {
            "NORMAL": 36,
            "POSITION": 35,
            "TANGENT": 37,
            "TEXCOORD_0": 38
          },
          "indices": 39,
          "material": 0,
          "mode": 4
        }
      ]
    },
    {
      "name": "defaultMaterial",
      "primitives": [
        {
          "attributes": {
            "NORMAL": 41,
            "POSITION": 40,
            "TANGENT": 42,
            "TEXCOORD_0": 43
          },
          "indices": 44,
          "material": 0,
          "mode": 4
        }
      ]
    },
    {
      "name": "defaultMaterial",
      "primitives": [
        {
          "attributes": {
            "NORMAL": 46,
            "POSITION": 45,
            "TANGENT": 47,
            "TEXCOORD_0": 48
          },
          "indices": 49,
          "material": 0,
          "mode": 4
        }
      ]
    }
  ],
  "nodes": [
    {
      "children": [
        1
      ],
      "matrix": [
        1.0,
        0.0,
        0.0,
        0.0,
        0.0,
        2.220446049250313e-16,
        -1.0,
        0.0,
        0.0,
        1.0,
        2.220446049250313e-16,
        0.0,
        0.0,
        0.0,
        0.0,
        1.0
      ],
      "name": "Sketchfab_model"
    },
    {
      "children": [
        2,
        6,
        8,
        10,
        12,
        14,
        16
      ],
      "matrix": [
        1.0,
        0.0,
        0.0,
        0.0,
        0.0,
        -4.371139006309477e-08,
        0.999999999999999,
        0.0,
        0.0,
        -0.999999999999999,
        -4.371139006309477e-08,
        0.0,
        0.0,
        0.0,
        0.0,
        1.0
      ],
      "name": "Collada visual scene group"
    },
    {
      "children": [
        3,
        4
      ],
      "matrix": [
        11.455441,
        -10.66987,
        -8.499658,
        0.0,
        -1e-06,
        11.099066,
        -13.932986,
        0.0,
        13.641491,
        8.960022,
        7.137584,
        0.0,
        -92.356987,
        513.038513,
        0.549844,
        1.0
      ],
      "name": "Cylinder.011"
    },
    {
      "mesh": 0,
      "name": "defaultMaterial"
    },
    {
      "children": [
        5
      ],
      "matrix": [
        -0.061378,
        0.116226,
        -0.22496,
        0.0,
        0.005315,
        0.232015,
        0.118421,
        0.0,
        0.453245,
        0.041731,
        -0.102103,
        0.0,
        12.278831,
        -4.545012,
        -14.876442,
        1.0
      ],
      "name": "Cylinder.013"
    },
    {
      "mesh": 1,
      "name": "defaultMaterial"
    },
    {
      "children": [
        7
      ],
      "matrix": [
        4e-06,
        -18.098272,
        0.0,
        0.0,
        -18.098272,
        -4e-06,
        3e-06,
        0.0,
        -5e-06,
        0.0,
        -30.049023,
        0.0,
        -42.944614,
        545.791504,
        0.546774,
        1.0
      ],
      "name": "Cylinder.008"
    },
    {
      "mesh": 2,
      "name": "defaultMaterial"
    },
    {
      "children": [
        9
      ],
      "matrix": [
        4e-06,
        -22.711702,
        0.0,
        0.0,
        -22.711702,
        -4e-06,
        3e-06,
        0.0,
        -6e-06,
        0.0,
        -37.70882,
        0.0,
        -80.490921,
        518.98999,
        0.546774,
        1.0
      ],
      "name": "Cylinder.007"
    },
    {
      "mesh": 3,
      "name": "defaultMaterial"
    },
    {
      "children": [
        11
      ],
      "matrix": [
        50.123875,
        0.0,
        0.0,
        0.0,
        0.0,
        -8e-06,
        -50.123875,
        0.0,
        0.0,
        50.123875,
        -8e-06,
        0.0,
        -86.843727,
        236.98468,
        0.869255,
        1.0
      ],
      "name": "Cylinder.005"
    },
    {
      "mesh": 4,
      "name": "defaultMaterial"
    },
    {
      "children": [
        13
      ],
      "matrix": [
        19.805433,
        -23.584925,
        0.0,
        0.0,
        -1e-06,
        -1e-06,
        -30.797789,
        0.0,
        23.584925,
        19.805433,
        -1e-06,
        0.0,
        -69.116058,
        293.696167,
        0.549844,
        1.0
      ],
      "name": "Cylinder.003"
    },
    {
      "mesh": 5,
      "name": "defaultMaterial"
    },
    {
      "children": [
        15
      ],
      "matrix": [
        111.294136,
        0.0,
        0.0,
        0.0,
        0.0,
        -1.8e-05,
        -111.294136,
        0.0,
        0.0,
        84.566559,
        -1.4e-05,
        0.0,
        0.0,
        472.789581,
        0.0,
        1.0
      ],
      "name": "Cylinder"
    },
    {
      "mesh": 6,
      "name": "defaultMaterial"
    },
    {
      "children": [
        17,
        18,
        20
      ],
      "matrix": [
        115.441956,
        -3.013589,
        -31.892031,
        0.0,
        -31.631315,
        -29.578203,
        -111.70327,
        0.0,
        -5.063942,
        116.056358,
        -29.296898,
        0.0,
        -0.065062,
        721.823853,
        -46.976913,
        1.0
      ],
      "name": "Sphere"
    },
    {
      "mesh": 7,
      "name": "defaultMaterial"
    },
    {
      "children": [
        19
      ],
      "matrix": [
        0.0,
        0.888541,
        -0.853995,
        0.0,
        0.0,
        0.853996,
        0.888541,
        0.0,
        1.232401,
        0.0,
        0.0,
        0.0,
        -1.472572,
        -0.038688,
        0.025526,
        1.0
      ],
      "name": "Cylinder.001"
    },
    {
      "mesh": 8,
      "name": "defaultMaterial"
    },
    {
      "children": [
        21
      ],
      "matrix": [
        0.963589,
        -0.264025,
        -0.042268,
        0.0,
        0.266201,
        0.932382,
        0.24454,
        0.0,
        -0.025154,
        -0.246888,
        0.968718,
        0.0,
        0.051695,
        1.290443,
        -6.89751,
        1.0
      ],
      "name": "Cylinder.002"
    },
    {
      "mesh": 9,
      "name": "defaultMaterial"
    }
  ],
  "samplers": [
    {
      "magFilter": 9729,
      "minFilter": 9987,
      "wrapS": 10497,
      "wrapT": 10497
    }
  ],
  "scene": 0,
  "scenes": [
    {
      "name": "Sketchfab_Scene",
      "nodes": [
        0
      ]
    }
  ],
  "textures": [
    {
      "sampler": 0,
      "source": 0
    },
    {
      "sampler": 0,
      "source": 1
    },
    {
      "sampler": 0,
      "source": 2
    }
  ]
}
