{
  "accessors": [
    {
      "bufferView": 2,
      "componentType": 5126,
      "count": 65532,
      "max": [
        2.6144654750823975,
        0.6121106743812561,
        0.40142160654067993
      ],
      "min": [
        -2.809762716293335,
        -0.7166875600814819,
        -0.4043809175491333
      ],
      "type": "VEC3"
    },
    {
      "bufferView": 2,
      "byteOffset": 786384,
      "componentType": 5126,
      "count": 65532,
      "max": [
        1.0,
        0.9999462962150574,
        1.0
      ],
      "min": [
        -1.0,
        -1.0,
        -0.999997615814209
      ],
      "type": "VEC3"
    },
    {
      "bufferView": 1,
      "componentType": 5126,
      "count": 65532,
      "max": [
        0.9999052882194519,
        0.9982976913452148
      ],
      "min": [
        0.0,
        0.0
      ],
      "type": "VEC2"
    },
    {
      "bufferView": 0,
      "componentType": 5125,
      "count": 279564,
      "type": "SCALAR"
    },
    {
      "bufferView": 2,
      "byteOffset": 1572768,
      "componentType": 5126,
      "count": 65534,
      "max": [
        2.6167356967926025,
        0.6121106743812561,
        0.4166033864021301
      ],
      "min": [
        -2.809762716293335,
        -0.7188120484352112,
        -0.4043809175491333
      ],
      "type": "VEC3"
    },
    {
      "bufferView": 2,
      "byteOffset": 2359176,
      "componentType": 5126,
      "count": 65534,
      "max": [
        0.9992108345031738,
        0.9999570250511169,
        1.0
      ],
      "min": [
        -0.9994799494743347,
        -0.9999997615814209,
        -1.0
      ],
      "type": "VEC3"
    },
    {
      "bufferView": 1,
      "byteOffset": 524256,
      "componentType": 5126,
      "count": 65534,
      "max": [
        0.9999924302101135,
        0.9999959468841553
      ],
      "min": [
        4.752937820740044e-05,
        0.0
      ],
      "type": "VEC2"
    },
    {
      "bufferView": 0,
      "byteOffset": 1118256,
      "componentType": 5125,
      "count": 220386,
      "type": "SCALAR"
    },
    {
      "bufferView": 2,
      "byteOffset": 3145584,
      "componentType": 5126,
      "count": 21684,
      "max": [
        2.6167356967926025,
        0.6093723773956299,
        0.41523241996765137
      ],
      "min": [
        -2.809762716293335,
        -0.716691255569458,
        -0.4043809175491333
      ],
      "type": "VEC3"
    },
    {
      "bufferView": 2,
      "byteOffset": 3405792,
      "componentType": 5126,
      "count": 21684,
      "max": [
        0.9993689656257629,
        0.9996561408042908,
        1.0
      ],
      "min": [
        -1.0,
        -0.999980628490448,
        -0.9999964237213135
      ],
      "type": "VEC3"
    },
    {
      "bufferView": 1,
      "byteOffset": 1048528,
      "componentType": 5126,
      "count": 21684,
      "max": [
        1.0,
        1.0
      ],
      "min": [
        0.009529396891593933,
        0.0
      ],
      "type": "VEC2"
    },
    {
      "bufferView": 0,
      "byteOffset": 1999800,
      "componentType": 5125,
      "count": 33447,
      "type": "SCALAR"
    },
    {
      "bufferView": 2,
      "byteOffset": 3666000,
      "componentType": 5126,
      "count": 120,
      "max": [
        10.000000953674316,
        1.0,
        1.0
      ],
      "min": [
        -7.999999046325684,
        -1.0,
        -1.0
      ],
      "type": "VEC3"
    },
    {
      "bufferView": 2,
      "byteOffset": 3667440,
      "componentType": 5126,
      "count": 120,
      "max": [
        1.0,
        1.0,
        1.0
      ],
      "min": [
        -1.0,
        -1.0,
        -1.0
      ],
      "type": "VEC3"
    },
    {
      "bufferView": 1,
      "byteOffset": 1222000,
      "componentType": 5126,
      "count": 120,
      "max": [
        0.875,
        1.0
      ],
      "min": [
        0.125,
        0.0
      ],
      "type": "VEC2"
    },
    {
      "bufferView": 0,
      "byteOffset": 2133588,
      "componentType": 5125,
      "count": 180,
      "type": "SCALAR"
    },
    {
      "bufferView": 2,
      "byteOffset": 3668880,
      "componentType": 5126,
      "count": 120,
      "max": [
        8.000000953674316,
        1.0,
        1.0
      ],
      "min": [
        -9.999999046325684,
        -1.0,
        -1.0
      ],
      "type": "VEC3"
    },
    {
      "bufferView": 2,
      "byteOffset": 3670320,
      "componentType": 5126,
      "count": 120,
      "max": [
        1.0,
        1.0,
        1.0
      ],
      "min": [
        -1.0,
        -1.0,
        -1.0
      ],
      "type": "VEC3"
    },
    {
      "bufferView": 1,
      "byteOffset": 1222960,
      "componentType": 5126,
      "count": 120,
      "max": [
        0.875,
        1.0
      ],
      "min": [
        0.125,
        0.0
      ],
      "type": "VEC2"
    },
    {
      "bufferView": 0,
      "byteOffset": 2134308,
      "componentType": 5125,
      "count": 180,
      "type": "SCALAR"
    }
  ],
  "asset": {
    "extras": {
      "author": "Matt Humpage (https://sketchfab.com/MattHumpage)",
      "license": "CC-BY-4.0 (http://creativecommons.org/licenses/by/4.0/)",
      "source": "https://sketchfab.com/3d-models/eigg-dinosaur-bone-6e670b8f91e947d6860f14016540c7bb",
      "title": "Eigg Dinosaur Bone"
    },
    "generator": "Sketchfab-12.68.0",
    "version": "2.0"
  },
  "bufferViews": [
    {
      "buffer": 0,
      "byteLength": 2135028,
      "name": "floatBufferViews",
      "target": 34963
    },
    {
      "buffer": 0,
      "byteLength": 1223920,
      "byteOffset": 2135028,
      "byteStride": 8,
      "name": "floatBufferViews",
      "target": 34962
    },
    {
      "buffer": 0,
      "byteLength": 3671760,
      "byteOffset": 3358948,
      "byteStride": 12,
      "name": "floatBufferViews",
      "target": 34962
    }
  ],
  "buffers": [
    {
      "byteLength": 7030708,
      "uri": "scene.bin"
    }
  ],
  "images": [
    {
      "uri": "textures/Final_Model_baseColor.png"
    }
  ],
  "materials": [
    {
      "doubleSided": true,
      "name": "Final_Model",
      "pbrMetallicRoughness": {
        "baseColorTexture": {
          "index": 0
        },
        "metallicFactor": 0.0
      }
    },
    {
      "doubleSided": true,
      "name": "White",
      "pbrMetallicRoughness": {
        "metallicFactor": 0.0
      }
    },
    {
      "doubleSided": true,
      "name": "Black",
      "pbrMetallicRoughness": {
        "baseColorFactor": [
          0.0,
          0.0,
          0.0,
          1.0
        ],
        "metallicFactor": 0.0
      }
    }
  ],
  "meshes": [
    {
      "name": "Final Model.scale-0.119_Final Model_0",
      "primitives": [
        {
          "attributes": {
            "NORMAL": 1,
            "POSITION": 0,
            "TEXCOORD_0": 2
          },
          "indices": 3,
          "material": 0,
          "mode": 4
        }
      ]
    },
    {
      "name": "Final Model.scale-0.119_Final Model_0",
      "primitives": [
        {
          "attributes": {
            "NORMAL": 5,
            "POSITION": 4,
            "TEXCOORD_0": 6
          },
          "indices": 7,
          "material": 0,
          "mode": 4
        }
      ]
    },
    {
      "name": "Final Model.scale-0.119_Final Model_0",
      "primitives": [
        {
          "attributes": {
            "NORMAL": 9,
            "POSITION": 8,
            "TEXCOORD_0": 10
          },
          "indices": 11,
          "material": 0,
          "mode": 4
        }
      ]
    },
    {
      "name": "Scale Bar_White_0",
      "primitives": [
        {
          "attributes": {
            "NORMAL": 13,
            "POSITION": 12,
            "TEXCOORD_0": 14
          },
          "indices": 15,
          "material": 1,
          "mode": 4
        }
      ]
    },
    {
      "name": "Scale Bar_Black_0",
      "primitives": [
        {
          "attributes": {
            "NORMAL": 17,
            "POSITION": 16,
            "TEXCOORD_0": 18
          },
          "indices": 19,
          "material": 2,
          "mode": 4
        }
      ]
    }
  ],
  "nodes": [
    {
      "children": [
        1
      ],
      "matrix": [
        1.0,
        0.0,
        0.0,
        0.0,
        0.0,
        2.220446049250313e-16,
        -1.0,
        0.0,
        0.0,
        1.0,
        2.220446049250313e-16,
        0.0,
        0.0,
        0.0,
        0.0,
        1.0
      ],
      "name": "Sketchfab_model"
    },
    {
      "children": [
        2
      ],
      "matrix": [
        1.0,
        0.0,
        0.0,
        0.0,
        0.0,
        0.0,
        1.0,
        0.0,
        0.0,
        -1.0,
        0.0,
        0.0,
        0.0,
        0.0,
        0.0,
        1.0
      ],
      "name": "Eigg Dino Bone Model.fbx"
    },
    {
      "children": [
        3,
        7
      ],
      "name": "RootNode"
    },
    {
      "children": [
        4,
        5,
        6
      ],
      "matrix": [
        -11.88323402404695,
        1.4552762000617325e-15,
        4.627502183195217e-06,
        0.0,
        4.627502183195203e-06,
        8.971592118941329e-07,
        11.883234024046915,
        0.0,
        -3.4791141917397423e-13,
        11.883234024047816,
        -8.971592105748289e-07,
        0.0,
        0.0,
        1.0,
        -271.9238586425781,
        1.0
      ],
      "name": "Final Model.scale-0.119"
    },
    {
      "mesh": 0,
      "name": "Final Model.scale-0.119_Final Model_0"
    },
    {
      "mesh": 1,
      "name": "Final Model.scale-0.119_Final Model_0"
    },
    {
      "mesh": 2,
      "name": "Final Model.scale-0.119_Final Model_0"
    },
    {
      "children": [
        8,
        9
      ],
      "matrix": [
        0.5,
        0.0,
        0.0,
        0.0,
        0.0,
        -8.146033969591571e-08,
        -0.4999999999999934,
        0.0,
        0.0,
        0.1557354032993296,
        -2.5372517710887978e-08,
        0.0,
        0.0,
        0.0,
        -262.3212585449219,
        1.0
      ],
      "name": "Scale Bar"
    },
    {
      "mesh": 3,
      "name": "Scale Bar_White_0"
    },
    {
      "mesh": 4,
      "name": "Scale Bar_Black_0"
    }
  ],
  "samplers": [
    {
      "magFilter": 9729,
      "minFilter": 9987,
      "wrapS": 10497,
      "wrapT": 10497
    }
  ],
  "scene": 0,
  "scenes": [
    {
      "name": "Sketchfab_Scene",
      "nodes": [
        0
      ]
    }
  ],
  "textures": [
    {
      "sampler": 0,
      "source": 0
    }
  ]
}
