{
  "accessors": [
    {
      "bufferView": 1,
      "componentType": 5126,
      "count": 65532,
      "max": [
        63.680660247802734,
        130.718505859375,
        359.010009765625
      ],
      "min": [
        -98.00337982177734,
        0.14579780399799347,
        258.4299011230469
      ],
      "type": "VEC3"
    },
    {
      "bufferView": 1,
      "byteOffset": 786384,
      "componentType": 5126,
      "count": 65532,
      "max": [
        0.9999471306800842,
        0.9998586773872375,
        0.9999934434890747
      ],
      "min": [
        -0.9998912215232849,
        -0.9999915957450867,
        -0.9999796152114868
      ],
      "type": "VEC3"
    },
    {
      "bufferView": 0,
      "componentType": 5125,
      "count": 319950,
      "type": "SCALAR"
    },
    {
      "bufferView": 1,
      "byteOffset": 1572768,
      "componentType": 5126,
      "count": 65532,
      "max": [
        64.54630279541016,
        118.57489776611328,
        357.97100830078125
      ],
      "min": [
        -98.12069702148438,
        -11.23859977722168,
        258.52740478515625
      ],
      "type": "VEC3"
    },
    {
      "bufferView": 1,
      "byteOffset": 2359152,
      "componentType": 5126,
      "count": 65532,
      "max": [
        0.9999985098838806,
        0.9999829530715942,
        0.999993622303009
      ],
      "min": [
        -0.9999780058860779,
        -0.9999467730522156,
        -0.9999983310699463
      ],
      "type": "VEC3"
    },
    {
      "bufferView": 0,
      "byteOffset": 1279800,
      "componentType": 5125,
      "count": 318645,
      "type": "SCALAR"
    },
    {
      "bufferView": 1,
      "byteOffset": 3145536,
      "componentType": 5126,
      "count": 65532,
      "max": [
        62.37614059448242,
        144.0034942626953,
        362.1241149902344
      ],
      "min": [
        -97.67272186279297,
        -10.782130241394043,
        258.75189208984375
      ],
      "type": "VEC3"
    },
    {
      "bufferView": 1,
      "byteOffset": 3931920,
      "componentType": 5126,
      "count": 65532,
      "max": [
        0.9999871253967285,
        0.9999998211860657,
        0.9999955892562866
      ],
      "min": [
        -0.999627411365509,
        -0.9999223351478577,
        -0.9999983310699463
      ],
      "type": "VEC3"
    },
    {
      "bufferView": 0,
      "byteOffset": 2554380,
      "componentType": 5125,
      "count": 316491,
      "type": "SCALAR"
    },
    {
      "bufferView": 1,
      "byteOffset": 4718304,
      "componentType": 5126,
      "count": 65532,
      "max": [
        44.581871032714844,
        139.6239013671875,
        363.2373962402344
      ],
      "min": [
        -98.51377868652344,
        35.147300720214844,
        278.47259521484375
      ],
      "type": "VEC3"
    },
    {
      "bufferView": 1,
      "byteOffset": 5504688,
      "componentType": 5126,
      "count": 65532,
      "max": [
        0.9998968243598938,
        0.999916672706604,
        0.9999884366989136
      ],
      "min": [
        -0.9999837875366211,
        -0.9998555183410645,
        -0.9999939799308777
      ],
      "type": "VEC3"
    },
    {
      "bufferView": 0,
      "byteOffset": 3820344,
      "componentType": 5125,
      "count": 325533,
      "type": "SCALAR"
    },
    {
      "bufferView": 1,
      "byteOffset": 6291072,
      "componentType": 5126,
      "count": 65532,
      "max": [
        60.79344177246094,
        122.0364990234375,
        361.010009765625
      ],
      "min": [
        -87.09613037109375,
        -10.734490394592285,
        263.0191955566406
      ],
      "type": "VEC3"
    },
    {
      "bufferView": 1,
      "byteOffset": 7077456,
      "componentType": 5126,
      "count": 65532,
      "max": [
        0.9927579760551453,
        0.9999665021896362,
        0.9999257922172546
      ],
      "min": [
        -0.9998241066932678,
        -0.9999369382858276,
        -0.9999996423721313
      ],
      "type": "VEC3"
    },
    {
      "bufferView": 0,
      "byteOffset": 5122476,
      "componentType": 5125,
      "count": 320319,
      "type": "SCALAR"
    },
    {
      "bufferView": 1,
      "byteOffset": 7863840,
      "componentType": 5126,
      "count": 65532,
      "max": [
        63.40007019042969,
        144.87460327148438,
        371.7333984375
      ],
      "min": [
        -92.56401824951172,
        -11.23859977722168,
        264.0589904785156
      ],
      "type": "VEC3"
    },
    {
      "bufferView": 1,
      "byteOffset": 8650224,
      "componentType": 5126,
      "count": 65532,
      "max": [
        1.0,
        0.9999909400939941,
        1.0
      ],
      "min": [
        -0.9996891617774963,
        -0.99997878074646,
        -0.9999048113822937
      ],
      "type": "VEC3"
    },
    {
      "bufferView": 0,
      "byteOffset": 6403752,
      "componentType": 5125,
      "count": 313659,
      "type": "SCALAR"
    },
    {
      "bufferView": 1,
      "byteOffset": 9436608,
      "componentType": 5126,
      "count": 65532,
      "max": [
        63.201969146728516,
        144.9864959716797,
        371.52978515625
      ],
      "min": [
        -92.43266296386719,
        -9.53426742553711,
        267.5068054199219
      ],
      "type": "VEC3"
    },
    {
      "bufferView": 1,
      "byteOffset": 10222992,
      "componentType": 5126,
      "count": 65532,
      "max": [
        1.0,
        0.9999999403953552,
        0.9999657869338989
      ],
      "min": [
        -0.9999722242355347,
        -0.9997967481613159,
        -0.9999975562095642
      ],
      "type": "VEC3"
    },
    {
      "bufferView": 0,
      "byteOffset": 7658388,
      "componentType": 5125,
      "count": 312318,
      "type": "SCALAR"
    },
    {
      "bufferView": 1,
      "byteOffset": 11009376,
      "componentType": 5126,
      "count": 65532,
      "max": [
        58.43088912963867,
        144.27220153808594,
        370.08441162109375
      ],
      "min": [
        -91.69055938720703,
        -8.376579284667969,
        261.33740234375
      ],
      "type": "VEC3"
    },
    {
      "bufferView": 1,
      "byteOffset": 11795760,
      "componentType": 5126,
      "count": 65532,
      "max": [
        0.9997856616973877,
        0.9999998211860657,
        0.9999982714653015
      ],
      "min": [
        -0.999846339225769,
        -0.9999659657478333,
        -0.9999796152114868
      ],
      "type": "VEC3"
    },
    {
      "bufferView": 0,
      "byteOffset": 8907660,
      "componentType": 5125,
      "count": 307689,
      "type": "SCALAR"
    },
    {
      "bufferView": 1,
      "byteOffset": 12582144,
      "componentType": 5126,
      "count": 65532,
      "max": [
        64.47518920898438,
        144.93710327148438,
        370.4288024902344
      ],
      "min": [
        -98.51377868652344,
        -11.002809524536133,
        258.75189208984375
      ],
      "type": "VEC3"
    },
    {
      "bufferView": 1,
      "byteOffset": 13368528,
      "componentType": 5126,
      "count": 65532,
      "max": [
        1.0,
        0.9999909400939941,
        0.9999846816062927
      ],
      "min": [
        -1.0,
        -0.9996051788330078,
        -0.9999565482139587
      ],
      "type": "VEC3"
    },
    {
      "bufferView": 0,
      "byteOffset": 10138416,
      "componentType": 5125,
      "count": 256275,
      "type": "SCALAR"
    },
    {
      "bufferView": 1,
      "byteOffset": 14154912,
      "componentType": 5126,
      "count": 65533,
      "max": [
        64.4078598022461,
        144.9447021484375,
        371.37469482421875
      ],
      "min": [
        -98.03800201416016,
        -11.23859977722168,
        258.8655090332031
      ],
      "type": "VEC3"
    },
    {
      "bufferView": 1,
      "byteOffset": 14941308,
      "componentType": 5126,
      "count": 65533,
      "max": [
        1.0,
        1.0,
        1.0
      ],
      "min": [
        -1.0,
        -1.0,
        -1.0
      ],
      "type": "VEC3"
    },
    {
      "bufferView": 0,
      "byteOffset": 11163516,
      "componentType": 5125,
      "count": 178659,
      "type": "SCALAR"
    },
    {
      "bufferView": 1,
      "byteOffset": 15727704,
      "componentType": 5126,
      "count": 17506,
      "max": [
        64.3240966796875,
        144.15289306640625,
        369.6339111328125
      ],
      "min": [
        -97.9301986694336,
        -9.99795913696289,
        258.9859924316406
      ],
      "type": "VEC3"
    },
    {
      "bufferView": 1,
      "byteOffset": 15937776,
      "componentType": 5126,
      "count": 17506,
      "max": [
        1.0,
        1.0,
        1.0
      ],
      "min": [
        -0.9995573163032532,
        -1.0,
        -0.9998667240142822
      ],
      "type": "VEC3"
    },
    {
      "bufferView": 0,
      "byteOffset": 11878152,
      "componentType": 5125,
      "count": 30462,
      "type": "SCALAR"
    }
  ],
  "asset": {
    "extras": {
      "author": "EDDyLab @ULiege (https://sketchfab.com/eddylab)",
      "license": "CC-BY-NC-4.0 (http://creativecommons.org/licenses/by-nc/4.0/)",
      "source": "https://sketchfab.com/3d-models/a-spiny-ammonite-69762763d05f4be19849b5d6024e282a",
      "title": "A spiny ammonite"
    },
    "generator": "Sketchfab-12.67.0",
    "version": "2.0"
  },
  "bufferViews": [
    {
      "buffer": 0,
      "byteLength": 12000000,
      "name": "floatBufferViews",
      "target": 34963
    },
    {
      "buffer": 0,
      "byteLength": 16147848,
      "byteOffset": 12000000,
      "byteStride": 12,
      "name": "floatBufferViews",
      "target": 34962
    }
  ],
  "buffers": [
    {
      "byteLength": 28147848,
      "uri": "scene.bin"
    }
  ],
  "materials": [
    {
      "doubleSided": true,
      "name": "Scene_-_Root",
      "pbrMetallicRoughness": {
        "metallicFactor": 0.0,
        "roughnessFactor": 0.6
      }
    }
  ],
  "meshes": [
    {
      "name": "Object_0",
      "primitives": [
        {
          "attributes": {
            "NORMAL": 1,
            "POSITION": 0
          },
          "indices": 2,
          "material": 0,
          "mode": 4
        }
      ]
    },
    {
      "name": "Object_1",
      "primitives": [
        {
          "attributes": {
            "NORMAL": 4,
            "POSITION": 3
          },
          "indices": 5,
          "material": 0,
          "mode": 4
        }
      ]
    },
    {
      "name": "Object_2",
      "primitives": [
        {
          "attributes": {
            "NORMAL": 7,
            "POSITION": 6
          },
          "indices": 8,
          "material": 0,
          "mode": 4
        }
      ]
    },
    {
      "name": "Object_3",
      "primitives": [
        {
          "attributes": {
            "NORMAL": 10,
            "POSITION": 9
          },
          "indices": 11,
          "material": 0,
          "mode": 4
        }
      ]
    },
    {
      "name": "Object_4",
      "primitives": [
        {
          "attributes": {
            "NORMAL": 13,
            "POSITION": 12
          },
          "indices": 14,
          "material": 0,
          "mode": 4
        }
      ]
    },
    {
      "name": "Object_5",
      "primitives": [
        {
          "attributes": {
            "NORMAL": 16,
            "POSITION": 15
          },
          "indices": 17,
          "material": 0,
          "mode": 4
        }
      ]
    },
    {
      "name": "Object_6",
      "primitives": [
        {
          "attributes": {
            "NORMAL": 19,
            "POSITION": 18
          },
          "indices": 20,
          "material": 0,
          "mode": 4
        }
      ]
    },
    {
      "name": "Object_7",
      "primitives": [
        {
          "attributes": {
            "NORMAL": 22,
            "POSITION": 21
          },
          "indices": 23,
          "material": 0,
          "mode": 4
        }
      ]
    },
    {
      "name": "Object_8",
      "primitives": [
        {
          "attributes": {
            "NORMAL": 25,
            "POSITION": 24
          },
          "indices": 26,
          "material": 0,
          "mode": 4
        }
      ]
    },
    {
      "name": "Object_9",
      "primitives": [
        {
          "attributes": {
            "NORMAL": 28,
            "POSITION": 27
          },
          "indices": 29,
          "material": 0,
          "mode": 4
        }
      ]
    },
    {
      "name": "Object_10",
      "primitives": [
        {
          "attributes": {
            "NORMAL": 31,
            "POSITION": 30
          },
          "indices": 32,
          "material": 0,
          "mode": 4
        }
      ]
    }
  ],
  "nodes": [
    {
      "children": [
        1
      ],
      "matrix": [
        1.0,
        0.0,
        0.0,
        0.0,
        0.0,
        -0.9748440980911255,
        0.22288791835308053,
        0.0,
        0.0,
        -0.22288791835308053,
        -0.9748440980911255,
        0.0,
        0.0,
        450.5012817382812,
        225.37611389160168,
        1.0
      ],
      "name": "Sketchfab_model"
    },
    {
      "children": [
        2,
        3,
        4,
        5,
        6,
        7,
        8,
        9,
        10,
        11,
        12
      ],
      "name": "Geode"
    },
    {
      "mesh": 0,
      "name": "Object_2"
    },
    {
      "mesh": 1,
      "name": "Object_3"
    },
    {
      "mesh": 2,
      "name": "Object_4"
    },
    {
      "mesh": 3,
      "name": "Object_5"
    },
    {
      "mesh": 4,
      "name": "Object_6"
    },
    {
      "mesh": 5,
      "name": "Object_7"
    },
    {
      "mesh": 6,
      "name": "Object_8"
    },
    {
      "mesh": 7,
      "name": "Object_9"
    },
    {
      "mesh": 8,
      "name": "Object_10"
    },
    {
      "mesh": 9,
      "name": "Object_11"
    },
    {
      "mesh": 10,
      "name": "Object_12"
    }
  ],
  "scene": 0,
  "scenes": [
    {
      "name": "Sketchfab_Scene",
      "nodes": [
        0
      ]
    }
  ]
}
