{
  "accessors": [
    {
      "bufferView": 1,
      "componentType": 5126,
      "count": 3545,
      "max": [
        0.9951800107955933,
        0.9951800107955933,
        0.9700300097465515
      ],
      "min": [
        -0.9951800107955933,
        -0.9951800107955933,
        -1.0
      ],
      "type": "VEC3"
    },
    {
      "bufferView": 1,
      "byteOffset": 42540,
      "componentType": 5126,
      "count": 3545,
      "max": [
        0.9951873421669006,
        0.9951873421669006,
        0.9698581099510193
      ],
      "min": [
        -0.9951873421669006,
        -0.9951873421669006,
        -1.0
      ],
      "type": "VEC3"
    },
    {
      "bufferView": 0,
      "componentType": 5125,
      "count": 18336,
      "type": "SCALAR"
    },
    {
      "bufferView": 1,
      "byteOffset": 85080,
      "componentType": 5126,
      "count": 449,
      "max": [
        0.14673000574111938,
        0.14673000574111938,
        0.9871699810028076
      ],
      "min": [
        -0.14673000574111938,
        -0.14673000574111938,
        0.9712200164794922
      ],
      "type": "VEC3"
    },
    {
      "bufferView": 1,
      "byteOffset": 90468,
      "componentType": 5126,
      "count": 449,
      "max": [
        0.7178147435188293,
        0.7178147435188293,
        1.0
      ],
      "min": [
        -0.7178147435188293,
        -0.7178147435188293,
        0.6962279677391052
      ],
      "type": "VEC3"
    },
    {
      "bufferView": 0,
      "byteOffset": 73344,
      "componentType": 5125,
      "count": 2112,
      "type": "SCALAR"
    },
    {
      "bufferView": 1,
      "byteOffset": 95856,
      "componentType": 5126,
      "count": 1240,
      "max": [
        1.0,
        1.0,
        0.9807900190353394
      ],
      "min": [
        -1.0,
        -1.0,
        -0.9987999796867371
      ],
      "type": "VEC3"
    },
    {
      "bufferView": 1,
      "byteOffset": 110736,
      "componentType": 5126,
      "count": 1240,
      "max": [
        1.0,
        1.0,
        0.9974038004875183
      ],
      "min": [
        -1.0,
        -1.0,
        -0.9987587928771973
      ],
      "type": "VEC3"
    },
    {
      "bufferView": 0,
      "byteOffset": 81792,
      "componentType": 5125,
      "count": 4512,
      "type": "SCALAR"
    },
    {
      "bufferView": 1,
      "byteOffset": 125616,
      "componentType": 5126,
      "count": 320,
      "max": [
        0.19508999586105347,
        0.19508999586105347,
        0.9807900190353394
      ],
      "min": [
        -0.19508999586105347,
        -0.19508999586105347,
        0.9712200164794922
      ],
      "type": "VEC3"
    },
    {
      "bufferView": 1,
      "byteOffset": 129456,
      "componentType": 5126,
      "count": 320,
      "max": [
        0.7269602417945862,
        0.7269752025604248,
        0.9974038004875183
      ],
      "min": [
        -0.7269752025604248,
        -0.7269752025604248,
        0.686654269695282
      ],
      "type": "VEC3"
    },
    {
      "bufferView": 0,
      "byteOffset": 99840,
      "componentType": 5125,
      "count": 1152,
      "type": "SCALAR"
    },
    {
      "bufferView": 1,
      "byteOffset": 133296,
      "componentType": 5126,
      "count": 1184,
      "max": [
        0.8949000239372253,
        1.0038100481033325,
        0.8949000239372253
      ],
      "min": [
        -0.8949000239372253,
        -1.0038100481033325,
        -0.8949000239372253
      ],
      "type": "VEC3"
    },
    {
      "bufferView": 1,
      "byteOffset": 147504,
      "componentType": 5126,
      "count": 1184,
      "max": [
        0.9999999403953552,
        0.9977715015411377,
        0.9999999403953552
      ],
      "min": [
        -0.9999999403953552,
        -0.9977715015411377,
        -0.9999999403953552
      ],
      "type": "VEC3"
    },
    {
      "bufferView": 0,
      "byteOffset": 104448,
      "componentType": 5125,
      "count": 3504,
      "type": "SCALAR"
    }
  ],
  "asset": {
    "extras": {
      "author": "ExcaliburZero (https://sketchfab.com/excaliburzero)",
      "license": "CC-BY-4.0 (http://creativecommons.org/licenses/by/4.0/)",
      "source": "https://sketchfab.com/3d-models/beast-ball-85df964044de44edb3c5ff980ca5b669",
      "title": "Beast Ball"
    },
    "generator": "Sketchfab-12.68.0",
    "version": "2.0"
  },
  "bufferViews": [
    {
      "buffer": 0,
      "byteLength": 118464,
      "name": "floatBufferViews",
      "target": 34963
    },
    {
      "buffer": 0,
      "byteLength": 161712,
      "byteOffset": 118464,
      "byteStride": 12,
      "name": "floatBufferViews",
      "target": 34962
    }
  ],
  "buffers": [
    {
      "byteLength": 280176,
      "uri": "scene.bin"
    }
  ],
  "extensionsRequired": [
    "KHR_materials_pbrSpecularGlossiness"
  ],
  "extensionsUsed": [
    "KHR_materials_pbrSpecularGlossiness"
  ],
  "materials": [
    {
      "doubleSided": true,
      "extensions": {
        "KHR_materials_pbrSpecularGlossiness": {
          "diffuseFactor": [
            1.0,
            1.0,
            1.0,
            1.0
          ],
          "glossinessFactor": 1.0,
          "specularFactor": [
            1.0,
            1.0,
            1.0
          ]
        }
      },
      "name": "Gold"
    },
    {
      "doubleSided": true,
      "extensions": {
        "KHR_materials_pbrSpecularGlossiness": {
          "diffuseFactor": [
            1.0,
            1.0,
            1.0,
            1.0
          ],
          "glossinessFactor": 1.0,
          "specularFactor": [
            0.0,
            0.014298973605036736,
            0.38437479734420776
          ]
        }
      },
      "name": "Blue"
    },
    {
      "doubleSided": true,
      "extensions": {
        "KHR_materials_pbrSpecularGlossiness": {
          "diffuseFactor": [
            1.0,
            1.0,
            1.0,
            1.0
          ],
          "glossinessFactor": 1.0,
          "specularFactor": [
            1.0,
            1.0,
            1.0
          ]
        }
      },
      "name": "White"
    },
    {
      "doubleSided": true,
      "emissiveFactor": [
        0.003144965073266226,
        0.07772731613029293,
        0.09600001239776645
      ],
      "extensions": {
        "KHR_materials_pbrSpecularGlossiness": {
          "diffuseFactor": [
            1.0,
            1.0,
            1.0,
            1.0
          ],
          "glossinessFactor": 0.4,
          "specularFactor": [
            1.0,
            1.0,
            1.0
          ]
        }
      },
      "name": "Light_Blue"
    },
    {
      "doubleSided": true,
      "extensions": {
        "KHR_materials_pbrSpecularGlossiness": {
          "diffuseFactor": [
            1.0,
            1.0,
            1.0,
            1.0
          ],
          "glossinessFactor": 1.0,
          "specularFactor": [
            1.0,
            1.0,
            1.0
          ]
        }
      },
      "name": "Murky_Blue"
    }
  ],
  "meshes": [
    {
      "name": "Beast Ball_0",
      "primitives": [
        {
          "attributes": {
            "NORMAL": 1,
            "POSITION": 0
          },
          "indices": 2,
          "material": 1,
          "mode": 4
        }
      ]
    },
    {
      "name": "Beast Ball_1",
      "primitives": [
        {
          "attributes": {
            "NORMAL": 4,
            "POSITION": 3
          },
          "indices": 5,
          "material": 2,
          "mode": 4
        }
      ]
    },
    {
      "name": "Beast Ball_2",
      "primitives": [
        {
          "attributes": {
            "NORMAL": 7,
            "POSITION": 6
          },
          "indices": 8,
          "material": 3,
          "mode": 4
        }
      ]
    },
    {
      "name": "Beast Ball_3",
      "primitives": [
        {
          "attributes": {
            "NORMAL": 10,
            "POSITION": 9
          },
          "indices": 11,
          "material": 4,
          "mode": 4
        }
      ]
    },
    {
      "name": "Beast Ball Curves_0",
      "primitives": [
        {
          "attributes": {
            "NORMAL": 13,
            "POSITION": 12
          },
          "indices": 14,
          "material": 0,
          "mode": 4
        }
      ]
    }
  ],
  "nodes": [
    {
      "children": [
        1
      ],
      "matrix": [
        1.0,
        0.0,
        0.0,
        0.0,
        0.0,
        2.220446049250313e-16,
        -1.0,
        0.0,
        0.0,
        1.0,
        2.220446049250313e-16,
        0.0,
        0.0,
        0.0,
        0.0,
        1.0
      ],
      "name": "Sketchfab_model"
    },
    {
      "children": [
        2,
        7
      ],
      "name": "Root"
    },
    {
      "children": [
        3,
        4,
        5,
        6
      ],
      "matrix": [
        1.0,
        0.0,
        0.0,
        0.0,
        0.0,
        0.0,
        1.0,
        0.0,
        0.0,
        -1.0,
        0.0,
        0.0,
        0.0,
        0.0,
        0.0,
        1.0
      ],
      "name": "Beast Ball"
    },
    {
      "mesh": 0,
      "name": "Beast Ball_0"
    },
    {
      "mesh": 1,
      "name": "Beast Ball_1"
    },
    {
      "mesh": 2,
      "name": "Beast Ball_2"
    },
    {
      "mesh": 3,
      "name": "Beast Ball_3"
    },
    {
      "children": [
        8
      ],
      "name": "Beast Ball Curves"
    },
    {
      "mesh": 4,
      "name": "Beast Ball Curves_0"
    }
  ],
  "scene": 0,
  "scenes": [
    {
      "name": "Sketchfab_Scene",
      "nodes": [
        0
      ]
    }
  ]
}
