{
  "accessors": [
    {
      "bufferView": 2,
      "componentType": 5126,
      "count": 2115,
      "max": [
        1.1980170011520386,
        3.7580180168151855,
        1.1980170011520386
      ],
      "min": [
        -1.1980170011520386,
        3.501645088195801,
        -1.1980170011520386
      ],
      "type": "VEC3"
    },
    {
      "bufferView": 2,
      "byteOffset": 25380,
      "componentType": 5126,
      "count": 2115,
      "max": [
        1.0,
        1.0,
        1.0
      ],
      "min": [
        -1.0,
        -3.0000005608599167e-06,
        -1.0
      ],
      "type": "VEC3"
    },
    {
      "bufferView": 3,
      "componentType": 5126,
      "count": 2115,
      "max": [
        1.0,
        1.0,
        1.0,
        1.0
      ],
      "min": [
        -1.0,
        -1.0,
        -1.0,
        1.0
      ],
      "type": "VEC4"
    },
    {
      "bufferView": 1,
      "componentType": 5126,
      "count": 2115,
      "max": [
        0.7849019765853882,
        0.45495501160621643
      ],
      "min": [
        0.6315010190010071,
        0.08477599918842316
      ],
      "type": "VEC2"
    },
    {
      "bufferView": 0,
      "componentType": 5125,
      "count": 12000,
      "type": "SCALAR"
    },
    {
      "bufferView": 2,
      "byteOffset": 50760,
      "componentType": 5126,
      "count": 1486,
      "max": [
        1.1324900388717651,
        3.680478096008301,
        1.1324900388717651
      ],
      "min": [
        -1.1324900388717651,
        -0.09249699860811234,
        -1.1324900388717651
      ],
      "type": "VEC3"
    },
    {
      "bufferView": 2,
      "byteOffset": 68592,
      "componentType": 5126,
      "count": 1486,
      "max": [
        0.9999408721923828,
        1.0,
        0.9999408721923828
      ],
      "min": [
        -0.9999409914016724,
        -1.0,
        -0.9999409914016724
      ],
      "type": "VEC3"
    },
    {
      "bufferView": 3,
      "byteOffset": 33840,
      "componentType": 5126,
      "count": 1486,
      "max": [
        1.0,
        0.9979158043861389,
        1.0,
        1.0
      ],
      "min": [
        -1.0,
        -0.9979175925254822,
        -1.0,
        1.0
      ],
      "type": "VEC4"
    },
    {
      "bufferView": 1,
      "byteOffset": 16920,
      "componentType": 5126,
      "count": 1486,
      "max": [
        0.5781829953193665,
        0.9994999766349792
      ],
      "min": [
        0.000391999987186864,
        0.0004990000161342323
      ],
      "type": "VEC2"
    },
    {
      "bufferView": 0,
      "byteOffset": 48000,
      "componentType": 5125,
      "count": 7920,
      "type": "SCALAR"
    },
    {
      "bufferView": 2,
      "byteOffset": 86424,
      "componentType": 5126,
      "count": 756,
      "max": [
        1.4385780096054077,
        4.925996780395508,
        0.1509220004081726
      ],
      "min": [
        -0.5159689784049988,
        0.5287669897079468,
        -0.08586499840021133
      ],
      "type": "VEC3"
    },
    {
      "bufferView": 2,
      "byteOffset": 95496,
      "componentType": 5126,
      "count": 756,
      "max": [
        0.9906941056251526,
        0.9889422655105591,
        0.9998957514762878
      ],
      "min": [
        -0.9982033371925354,
        -0.9877310991287231,
        -0.9998957514762878
      ],
      "type": "VEC3"
    },
    {
      "bufferView": 3,
      "byteOffset": 57616,
      "componentType": 5126,
      "count": 756,
      "max": [
        0.9998978972434998,
        0.9154698848724365,
        0.9999715685844421,
        1.0
      ],
      "min": [
        -0.9998978972434998,
        -0.9144108295440674,
        -0.9999422430992126,
        1.0
      ],
      "type": "VEC4"
    },
    {
      "bufferView": 1,
      "byteOffset": 28808,
      "componentType": 5126,
      "count": 756,
      "max": [
        0.6272580027580261,
        0.6152240037918091
      ],
      "min": [
        0.581384003162384,
        0.0828230008482933
      ],
      "type": "VEC2"
    },
    {
      "bufferView": 0,
      "byteOffset": 79680,
      "componentType": 5125,
      "count": 2160,
      "type": "SCALAR"
    }
  ],
  "asset": {
    "extras": {
      "author": "Adam.White (https://sketchfab.com/Adam.White)",
      "license": "CC-BY-4.0 (http://creativecommons.org/licenses/by/4.0/)",
      "source": "https://sketchfab.com/3d-models/fast-food-soda-cup-363537b2f81f43259aa587c8c5663c8e",
      "title": "Fast Food Soda Cup"
    },
    "generator": "Sketchfab-13.97.0",
    "version": "2.0"
  },
  "bufferViews": [
    {
      "buffer": 0,
      "byteLength": 88320,
      "name": "floatBufferViews",
      "target": 34963
    },
    {
      "buffer": 0,
      "byteLength": 34856,
      "byteOffset": 88320,
      "byteStride": 8,
      "name": "floatBufferViews",
      "target": 34962
    },
    {
      "buffer": 0,
      "byteLength": 104568,
      "byteOffset": 123176,
      "byteStride": 12,
      "name": "floatBufferViews",
      "target": 34962
    },
    {
      "buffer": 0,
      "byteLength": 69712,
      "byteOffset": 227744,
      "byteStride": 16,
      "name": "floatBufferViews",
      "target": 34962
    }
  ],
  "buffers": [
    {
      "byteLength": 297456,
      "uri": "scene.bin"
    }
  ],
  "extensionsUsed": [
    "KHR_materials_clearcoat"
  ],
  "images": [
    {
      "uri": "textures/Drink_baseColor.jpeg"
    },
    {
      "uri": "textures/Drink_metallicRoughness.png"
    },
    {
      "uri": "textures/Drink_emissive.jpeg"
    },
    {
      "uri": "textures/Drink_normal.png"
    }
  ],
  "materials": [
    {
      "doubleSided": true,
      "emissiveFactor": [
        1.0,
        1.0,
        1.0
      ],
      "emissiveTexture": {
        "index": 2
      },
      "extensions": {
        "KHR_materials_clearcoat": {
          "clearcoatFactor": 1.0,
          "clearcoatRoughnessFactor": 0.5965986009
        }
      },
      "name": "Drink",
      "normalTexture": {
        "index": 3,
        "scale": 0.9743919102
      },
      "occlusionTexture": {
        "index": 1
      },
      "pbrMetallicRoughness": {
        "baseColorTexture": {
          "index": 0
        },
        "metallicRoughnessTexture": {
          "index": 1
        }
      }
    }
  ],
  "meshes": [
    {
      "name": "defaultMaterial",
      "primitives": [
        {
          "attributes": {
            "NORMAL": 1,
            "POSITION": 0,
            "TANGENT": 2,
            "TEXCOORD_0": 3
          },
          "indices": 4,
          "material": 0,
          "mode": 4
        }
      ]
    },
    {
      "name": "defaultMaterial",
      "primitives": [
        {
          "attributes": {
            "NORMAL": 6,
            "POSITION": 5,
            "TANGENT": 7,
            "TEXCOORD_0": 8
          },
          "indices": 9,
          "material": 0,
          "mode": 4
        }
      ]
    },
    {
      "name": "defaultMaterial",
      "primitives": [
        {
          "attributes": {
            "NORMAL": 11,
            "POSITION": 10,
            "TANGENT": 12,
            "TEXCOORD_0": 13
          },
          "indices": 14,
          "material": 0,
          "mode": 4
        }
      ]
    }
  ],
  "nodes": [
    {
      "children": [
        1
      ],
      "matrix": [
        1.0,
        0.0,
        0.0,
        0.0,
        0.0,
        2.220446049250313e-16,
        -1.0,
        0.0,
        0.0,
        1.0,
        2.220446049250313e-16,
        0.0,
        0.0,
        0.0,
        0.0,
        1.0
      ],
      "name": "Sketchfab_model"
    },
    {
      "children": [
        2
      ],
      "matrix": [
        1.0,
        0.0,
        0.0,
        0.0,
        0.0,
        -4.371139006309477e-08,
        0.999999999999999,
        0.0,
        0.0,
        -0.999999999999999,
        -4.371139006309477e-08,
        0.0,
        0.0,
        0.0,
        0.0,
        1.0
      ],
      "name": "Collada visual scene group"
    },
    {
      "children": [
        3,
        5,
        7
      ],
      "name": "Drink_Low"
    },
    {
      "children": [
        4
      ],
      "name": "Lid_Low"
    },
    {
      "mesh": 0,
      "name": "defaultMaterial"
    },
    {
      "children": [
        6
      ],
      "name": "Cup_Low"
    },
    {
      "mesh": 1,
      "name": "defaultMaterial"
    },
    {
      "children": [
        8
      ],
      "name": "Straw_Low"
    },
    {
      "mesh": 2,
      "name": "defaultMaterial"
    }
  ],
  "samplers": [
    {
      "magFilter": 9729,
      "minFilter": 9987,
      "wrapS": 10497,
      "wrapT": 10497
    }
  ],
  "scene": 0,
  "scenes": [
    {
      "name": "Sketchfab_Scene",
      "nodes": [
        0
      ]
    }
  ],
  "textures": [
    {
      "sampler": 0,
      "source": 0
    },
    {
      "sampler": 0,
      "source": 1
    },
    {
      "sampler": 0,
      "source": 2
    },
    {
      "sampler": 0,
      "source": 3
    }
  ]
}
