{
  "accessors": [
    {
      "bufferView": 2,
      "componentType": 5126,
      "count": 18272,
      "max": [
        1.0007628202438354,
        1.0077354907989502,
        1.0067296028137207
      ],
      "min": [
        -1.0049257278442383,
        -1.0060194730758667,
        -1.0067752599716187
      ],
      "type": "VEC3"
    },
    {
      "bufferView": 2,
      "byteOffset": 219264,
      "componentType": 5126,
      "count": 18272,
      "max": [
        0.9999867677688599,
        0.9999047517776489,
        0.9992425441741943
      ],
      "min": [
        -0.9999867677688599,
        -0.9998544454574585,
        -0.9992425441741943
      ],
      "type": "VEC3"
    },
    {
      "bufferView": 3,
      "componentType": 5126,
      "count": 18272,
      "max": [
        0.9953961968421936,
        0.9996590614318848,
        0.9990283250808716,
        1.0
      ],
      "min": [
        -0.9966482520103455,
        -0.9996984601020813,
        -0.9999945759773254,
        -1.0
      ],
      "type": "VEC4"
    },
    {
      "bufferView": 1,
      "componentType": 5126,
      "count": 18272,
      "max": [
        0.9836454391479492,
        0.9949295520782471
      ],
      "min": [
        0.05402791500091553,
        0.015183299779891968
      ],
      "type": "VEC2"
    },
    {
      "bufferView": 1,
      "byteOffset": 146176,
      "componentType": 5126,
      "count": 18272,
      "max": [
        0.9836454391479492,
        0.9949295520782471
      ],
      "min": [
        0.05402791500091553,
        0.015183299779891968
      ],
      "type": "VEC2"
    },
    {
      "bufferView": 1,
      "byteOffset": 292352,
      "componentType": 5126,
      "count": 18272,
      "max": [
        0.9836454391479492,
        0.9949295520782471
      ],
      "min": [
        0.05402791500091553,
        0.015183299779891968
      ],
      "type": "VEC2"
    },
    {
      "bufferView": 1,
      "byteOffset": 438528,
      "componentType": 5126,
      "count": 18272,
      "max": [
        0.9836454391479492,
        0.9949295520782471
      ],
      "min": [
        0.05402791500091553,
        0.015183299779891968
      ],
      "type": "VEC2"
    },
    {
      "bufferView": 0,
      "componentType": 5125,
      "count": 85017,
      "type": "SCALAR"
    }
  ],
  "asset": {
    "extras": {
      "author": "Troube_Truffle (https://sketchfab.com/Troube_Truffle)",
      "license": "CC-BY-4.0 (http://creativecommons.org/licenses/by/4.0/)",
      "source": "https://sketchfab.com/3d-models/gyro-steel-balls-d0a8c732604a47e39aef04c63aaeae8d",
      "title": "Gyro Steel Balls"
    },
    "generator": "Sketchfab-12.68.0",
    "version": "2.0"
  },
  "bufferViews": [
    {
      "buffer": 0,
      "byteLength": 340068,
      "name": "floatBufferViews",
      "target": 34963
    },
    {
      "buffer": 0,
      "byteLength": 584704,
      "byteOffset": 340068,
      "byteStride": 8,
      "name": "floatBufferViews",
      "target": 34962
    },
    {
      "buffer": 0,
      "byteLength": 438528,
      "byteOffset": 924772,
      "byteStride": 12,
      "name": "floatBufferViews",
      "target": 34962
    },
    {
      "buffer": 0,
      "byteLength": 292352,
      "byteOffset": 1363300,
      "byteStride": 16,
      "name": "floatBufferViews",
      "target": 34962
    }
  ],
  "buffers": [
    {
      "byteLength": 1655652,
      "uri": "scene.bin"
    }
  ],
  "images": [
    {
      "uri": "textures/Material.001_baseColor.png"
    },
    {
      "uri": "textures/Material.001_metallicRoughness.png"
    },
    {
      "uri": "textures/Material.001_normal.png"
    }
  ],
  "materials": [
    {
      "doubleSided": true,
      "name": "Material.001",
      "normalTexture": {
        "index": 2,
        "scale": 0.5975670187086929
      },
      "pbrMetallicRoughness": {
        "baseColorTexture": {
          "index": 0
        },
        "metallicRoughnessTexture": {
          "index": 1
        }
      }
    }
  ],
  "meshes": [
    {
      "name": "Object_0",
      "primitives": [
        {
          "attributes": {
            "NORMAL": 1,
            "POSITION": 0,
            "TANGENT": 2,
            "TEXCOORD_0": 3,
            "TEXCOORD_1": 4,
            "TEXCOORD_2": 5,
            "TEXCOORD_3": 6
          },
          "indices": 7,
          "material": 0,
          "mode": 4
        }
      ]
    }
  ],
  "nodes": [
    {
      "children": [
        1
      ],
      "matrix": [
        1.0,
        0.0,
        0.0,
        0.0,
        0.0,
        2.220446049250313e-16,
        -1.0,
        0.0,
        0.0,
        1.0,
        2.220446049250313e-16,
        0.0,
        0.0,
        0.0,
        0.0,
        1.0
      ],
      "name": "Sketchfab_model"
    },
    {
      "children": [
        2
      ],
      "name": "root"
    },
    {
      "children": [
        3
      ],
      "matrix": [
        1.0,
        0.0,
        0.0,
        0.0,
        0.0,
        2.220446049250313e-16,
        1.0,
        0.0,
        0.0,
        -1.0,
        2.220446049250313e-16,
        0.0,
        0.0,
        0.0,
        0.0,
        1.0
      ],
      "name": "GLTF_SceneRootNode"
    },
    {
      "children": [
        4
      ],
      "matrix": [
        0.008313449549059852,
        -0.33120045292411976,
        -0.39585291612723156,
        0.0,
        -0.16728554922761057,
        0.37280357406031944,
        -0.31542885619204697,
        0.0,
        0.48827124611281897,
        0.13336456696432897,
        -0.10132851111524256,
        0.0,
        0.0,
        0.0,
        0.0,
        1.0
      ],
      "name": "Steel Ball_0"
    },
    {
      "mesh": 0,
      "name": "Object_4"
    }
  ],
  "samplers": [
    {
      "magFilter": 9729,
      "minFilter": 9987,
      "wrapS": 10497,
      "wrapT": 10497
    }
  ],
  "scene": 0,
  "scenes": [
    {
      "name": "Sketchfab_Scene",
      "nodes": [
        0
      ]
    }
  ],
  "textures": [
    {
      "sampler": 0,
      "source": 0
    },
    {
      "sampler": 0,
      "source": 1
    },
    {
      "sampler": 0,
      "source": 2
    }
  ]
}
