{
  "accessors": [
    {
      "bufferView": 1,
      "componentType": 5126,
      "count": 31966,
      "max": [
        0.9752500057220459,
        0.3785099983215332,
        0.9984300136566162
      ],
      "min": [
        -0.9752500057220459,
        -1.5390700101852417,
        -0.9984300136566162
      ],
      "type": "VEC3"
    },
    {
      "bufferView": 1,
      "byteOffset": 383592,
      "componentType": 5126,
      "count": 31966,
      "max": [
        0.9999496340751648,
        0.9999995827674866,
        1.0
      ],
      "min": [
        -0.9999496340751648,
        -0.9999995827674866,
        -1.0
      ],
      "type": "VEC3"
    },
    {
      "bufferView": 0,
      "componentType": 5125,
      "count": 192000,
      "type": "SCALAR"
    }
  ],
  "asset": {
    "extras": {
      "author": "alex.williams (https://sketchfab.com/alex.williams)",
      "license": "CC-BY-4.0 (http://creativecommons.org/licenses/by/4.0/)",
      "source": "https://sketchfab.com/3d-models/ball-21d4129b0ae842c5a6f09fc942811d4c",
      "title": "Ball"
    },
    "generator": "Sketchfab-12.66.0",
    "version": "2.0"
  },
  "bufferViews": [
    {
      "buffer": 0,
      "byteLength": 768000,
      "name": "floatBufferViews",
      "target": 34963
    },
    {
      "buffer": 0,
      "byteLength": 767184,
      "byteOffset": 768000,
      "byteStride": 12,
      "name": "floatBufferViews",
      "target": 34962
    }
  ],
  "buffers": [
    {
      "byteLength": 1535184,
      "uri": "scene.bin"
    }
  ],
  "materials": [
    {
      "doubleSided": true,
      "name": "Material.001",
      "pbrMetallicRoughness": {
        "metallicFactor": 0.11,
        "roughnessFactor": 0.0
      }
    }
  ],
  "meshes": [
    {
      "name": "Sphere",
      "primitives": [
        {
          "attributes": {
            "NORMAL": 1,
            "POSITION": 0
          },
          "indices": 2,
          "material": 0,
          "mode": 4
        }
      ]
    }
  ],
  "nodes": [
    {
      "children": [
        1
      ],
      "matrix": [
        1.0,
        0.0,
        0.0,
        0.0,
        0.0,
        2.220446049250313e-16,
        -1.0,
        0.0,
        0.0,
        1.0,
        2.220446049250313e-16,
        0.0,
        0.0,
        0.0,
        0.0,
        1.0
      ],
      "name": "Sketchfab_model"
    },
    {
      "children": [
        2
      ],
      "name": "Root"
    },
    {
      "children": [
        3,
        4
      ],
      "matrix": [
        1.0,
        0.0,
        0.0,
        0.0,
        0.0,
        1.0,
        0.0,
        0.0,
        0.0,
        0.0,
        1.0,
        0.0,
        0.9501200000000001,
        0.57811,
        2.73663,
        1.0
      ],
      "name": "Sphere"
    },
    {
      "mesh": 0,
      "name": "Sphere"
    },
    {
      "children": [
        5
      ],
      "matrix": [
        1.0,
        0.0,
        0.0,
        0.0,
        0.0,
        1.0,
        0.0,
        0.0,
        0.0,
        0.0,
        1.0,
        0.0,
        -0.006810000000000002,
        -0.59335,
        0.016480000000000005,
        1.0
      ],
      "name": "Point"
    },
    {
      "name": "Point"
    }
  ],
  "scene": 0,
  "scenes": [
    {
      "name": "Sketchfab_Scene",
      "nodes": [
        0
      ]
    }
  ]
}
