{
  "accessors": [
    {
      "bufferView": 2,
      "componentType": 5126,
      "count": 5753,
      "max": [
        4.862782001495361,
        8.556325912475586,
        4.856538772583008
      ],
      "min": [
        -4.862782001495361,
        -8.024235725402832,
        -4.856537818908691
      ],
      "type": "VEC3"
    },
    {
      "bufferView": 2,
      "byteOffset": 69036,
      "componentType": 5126,
      "count": 5753,
      "max": [
        1.0,
        1.0,
        1.0
      ],
      "min": [
        -1.0,
        -0.48984211683273315,
        -1.0
      ],
      "type": "VEC3"
    },
    {
      "bufferView": 3,
      "componentType": 5126,
      "count": 5753,
      "max": [
        0.9999994039535522,
        0.6624621748924255,
        0.993977963924408,
        1.0
      ],
      "min": [
        -1.0,
        -0.8598157167434692,
        -0.9992796778678894,
        1.0
      ],
      "type": "VEC4"
    },
    {
      "bufferView": 1,
      "componentType": 5126,
      "count": 5753,
      "max": [
        1.0,
        0.7232369780540466
      ],
      "min": [
        0.0,
        0.0
      ],
      "type": "VEC2"
    },
    {
      "bufferView": 0,
      "componentType": 5125,
      "count": 33696,
      "type": "SCALAR"
    },
    {
      "bufferView": 2,
      "byteOffset": 138072,
      "componentType": 5126,
      "count": 65532,
      "max": [
        4.928314208984375,
        9.232312202453613,
        4.961329936981201
      ],
      "min": [
        -4.939499855041504,
        -9.288093566894531,
        -4.893811225891113
      ],
      "type": "VEC3"
    },
    {
      "bufferView": 2,
      "byteOffset": 924456,
      "componentType": 5126,
      "count": 65532,
      "max": [
        1.0,
        1.0,
        1.0
      ],
      "min": [
        -1.0,
        -1.0,
        -1.0
      ],
      "type": "VEC3"
    },
    {
      "bufferView": 3,
      "byteOffset": 92048,
      "componentType": 5126,
      "count": 65532,
      "max": [
        1.0,
        1.0,
        1.0,
        1.0
      ],
      "min": [
        -1.0,
        -1.0,
        -1.0,
        -1.0
      ],
      "type": "VEC4"
    },
    {
      "bufferView": 1,
      "byteOffset": 46024,
      "componentType": 5126,
      "count": 65532,
      "max": [
        0.9946939945220947,
        0.9490180015563965
      ],
      "min": [
        0.0,
        0.0
      ],
      "type": "VEC2"
    },
    {
      "bufferView": 0,
      "byteOffset": 134784,
      "componentType": 5125,
      "count": 365811,
      "type": "SCALAR"
    },
    {
      "bufferView": 2,
      "byteOffset": 1710840,
      "componentType": 5126,
      "count": 35602,
      "max": [
        4.417540073394775,
        9.301100730895996,
        4.451211929321289
      ],
      "min": [
        -4.428724765777588,
        -9.304596900939941,
        -4.893811225891113
      ],
      "type": "VEC3"
    },
    {
      "bufferView": 2,
      "byteOffset": 2138064,
      "componentType": 5126,
      "count": 35602,
      "max": [
        0.9999828934669495,
        1.0,
        1.0
      ],
      "min": [
        -0.9999828934669495,
        -0.9999998807907104,
        -1.0
      ],
      "type": "VEC3"
    },
    {
      "bufferView": 3,
      "byteOffset": 1140560,
      "componentType": 5126,
      "count": 35602,
      "max": [
        1.0,
        0.9999610781669617,
        0.9999938011169434,
        1.0
      ],
      "min": [
        -0.9999909400939941,
        -0.9999946355819702,
        -0.9999958276748657,
        -1.0
      ],
      "type": "VEC4"
    },
    {
      "bufferView": 1,
      "byteOffset": 570280,
      "componentType": 5126,
      "count": 35602,
      "max": [
        0.9946709871292114,
        0.9733399748802185
      ],
      "min": [
        0.004635999910533428,
        0.005200999788939953
      ],
      "type": "VEC2"
    },
    {
      "bufferView": 0,
      "byteOffset": 1598028,
      "componentType": 5125,
      "count": 193629,
      "type": "SCALAR"
    }
  ],
  "asset": {
    "extras": {
      "author": "tiborjanas.art (https://sketchfab.com/tiborjanas.art)",
      "license": "CC-BY-4.0 (http://creativecommons.org/licenses/by/4.0/)",
      "source": "https://sketchfab.com/3d-models/realistic-metal-coke-can-5018cd9c05ef4ad5bc89e9cdc224b2f8",
      "title": "Realistic Metal Coke Can"
    },
    "generator": "Sketchfab-15.39.0",
    "version": "2.0"
  },
  "bufferViews": [
    {
      "buffer": 0,
      "byteLength": 2372544,
      "name": "floatBufferViews",
      "target": 34963
    },
    {
      "buffer": 0,
      "byteLength": 855096,
      "byteOffset": 2372544,
      "byteStride": 8,
      "name": "floatBufferViews",
      "target": 34962
    },
    {
      "buffer": 0,
      "byteLength": 2565288,
      "byteOffset": 3227640,
      "byteStride": 12,
      "name": "floatBufferViews",
      "target": 34962
    },
    {
      "buffer": 0,
      "byteLength": 1710192,
      "byteOffset": 5792928,
      "byteStride": 16,
      "name": "floatBufferViews",
      "target": 34962
    }
  ],
  "buffers": [
    {
      "byteLength": 7503120,
      "uri": "scene.bin"
    }
  ],
  "images": [
    {
      "uri": "textures/blinn_metal_1001_baseColor.jpeg"
    },
    {
      "uri": "textures/blinn_metal_1001_metallicRoughness.png"
    },
    {
      "uri": "textures/blinn_metal_1001_normal.png"
    },
    {
      "uri": "textures/blinn3_1001_baseColor.jpeg"
    },
    {
      "uri": "textures/blinn3_1001_metallicRoughness.png"
    },
    {
      "uri": "textures/blinn3_1001_normal.png"
    }
  ],
  "materials": [
    {
      "doubleSided": true,
      "name": "blinn_metal_1001",
      "normalTexture": {
        "index": 2
      },
      "occlusionTexture": {
        "index": 1
      },
      "pbrMetallicRoughness": {
        "baseColorTexture": {
          "index": 0
        },
        "metallicRoughnessTexture": {
          "index": 1
        }
      }
    },
    {
      "doubleSided": true,
      "name": "blinn3_1001",
      "normalTexture": {
        "index": 5
      },
      "pbrMetallicRoughness": {
        "baseColorTexture": {
          "index": 3
        },
        "metallicRoughnessTexture": {
          "index": 4
        }
      }
    }
  ],
  "meshes": [
    {
      "name": "defaultMaterial",
      "primitives": [
        {
          "attributes": {
            "NORMAL": 1,
            "POSITION": 0,
            "TANGENT": 2,
            "TEXCOORD_0": 3
          },
          "indices": 4,
          "material": 1,
          "mode": 4
        }
      ]
    },
    {
      "name": "defaultMaterial",
      "primitives": [
        {
          "attributes": {
            "NORMAL": 6,
            "POSITION": 5,
            "TANGENT": 7,
            "TEXCOORD_0": 8
          },
          "indices": 9,
          "material": 0,
          "mode": 4
        }
      ]
    },
    {
      "name": "defaultMaterial",
      "primitives": [
        {
          "attributes": {
            "NORMAL": 11,
            "POSITION": 10,
            "TANGENT": 12,
            "TEXCOORD_0": 13
          },
          "indices": 14,
          "material": 0,
          "mode": 4
        }
      ]
    }
  ],
  "nodes": [
    {
      "children": [
        1
      ],
      "matrix": [
        1.0,
        0.0,
        0.0,
        0.0,
        0.0,
        0.39855396747589134,
        -0.9171448945999144,
        0.0,
        0.0,
        0.9171448945999144,
        0.39855396747589134,
        0.0,
        0.0,
        0.0,
        0.0,
        1.0
      ],
      "name": "Sketchfab_model"
    },
    {
      "children": [
        2,
        4
      ],
      "matrix": [
        1.0,
        0.0,
        0.0,
        0.0,
        0.0,
        -4.371139006309477e-08,
        0.999999999999999,
        0.0,
        0.0,
        -0.999999999999999,
        -4.371139006309477e-08,
        0.0,
        0.0,
        0.0,
        0.0,
        1.0
      ],
      "name": "Collada visual scene group"
    },
    {
      "children": [
        3
      ],
      "name": "polySurface207"
    },
    {
      "mesh": 0,
      "name": "defaultMaterial"
    },
    {
      "children": [
        5,
        6
      ],
      "name": "CAN3"
    },
    {
      "mesh": 1,
      "name": "defaultMaterial"
    },
    {
      "mesh": 2,
      "name": "defaultMaterial"
    }
  ],
  "samplers": [
    {
      "magFilter": 9729,
      "minFilter": 9987,
      "wrapS": 10497,
      "wrapT": 10497
    }
  ],
  "scene": 0,
  "scenes": [
    {
      "name": "Sketchfab_Scene",
      "nodes": [
        0
      ]
    }
  ],
  "textures": [
    {
      "sampler": 0,
      "source": 0
    },
    {
      "sampler": 0,
      "source": 1
    },
    {
      "sampler": 0,
      "source": 2
    },
    {
      "sampler": 0,
      "source": 3
    },
    {
      "sampler": 0,
      "source": 4
    },
    {
      "sampler": 0,
      "source": 5
    }
  ]
}
